<?xml version="1.0" encoding="UTF-8" standalone="no"?>
<!-- Created with Inkscape (http://www.inkscape.org/) -->

<svg
   xmlns:osb="http://www.openswatchbook.org/uri/2009/osb"
   xmlns:dc="http://purl.org/dc/elements/1.1/"
   xmlns:cc="http://creativecommons.org/ns#"
   xmlns:rdf="http://www.w3.org/1999/02/22-rdf-syntax-ns#"
   xmlns:svg="http://www.w3.org/2000/svg"
   xmlns="http://www.w3.org/2000/svg"
   xmlns:xlink="http://www.w3.org/1999/xlink"
   xmlns:sodipodi="http://sodipodi.sourceforge.net/DTD/sodipodi-0.dtd"
   xmlns:inkscape="http://www.inkscape.org/namespaces/inkscape"
   width="104.32143mm"
   height="104.32143mm"
   viewBox="0 0 104.32144 104.32144"
   version="1.1"
   id="svg8"
   inkscape:version="0.92.4 (5da689c313, 2019-01-14)"
   sodipodi:docname="librecart-icon.svg"
   inkscape:export-filename="C:\Users\menno\Pictures\librecart\librecart-icon2.png"
   inkscape:export-xdpi="116.86956"
   inkscape:export-ydpi="116.86956">
  <defs
     id="defs2">
    <linearGradient
       inkscape:collect="always"
       id="linearGradient2504">
      <stop
         style="stop-color:#003249;stop-opacity:1"
         offset="0"
         id="stop2500" />
      <stop
         style="stop-color:#007ea7;stop-opacity:1"
         offset="1"
         id="stop2502" />
    </linearGradient>
    <linearGradient
       id="linearGradient2480"
       osb:paint="solid">
      <stop
         style="stop-color:#003249;stop-opacity:1;"
         offset="0"
         id="stop2478" />
    </linearGradient>
    <linearGradient
       inkscape:collect="always"
       id="linearGradient995">
      <stop
         style="stop-color:#003249;stop-opacity:1"
         offset="0"
         id="stop991" />
      <stop
         style="stop-color:#007ea7;stop-opacity:0.99494952"
         offset="1"
         id="stop993" />
    </linearGradient>
    <linearGradient
       inkscape:collect="always"
       xlink:href="#linearGradient995"
       id="linearGradient997"
       x1="63.499996"
       y1="146.56548"
       x2="167.82143"
       y2="146.56548"
       gradientUnits="userSpaceOnUse"
       gradientTransform="matrix(3.7795276,0,0,3.7795276,-240.00004,-356.80537)" />
    <linearGradient
       inkscape:collect="always"
       xlink:href="#linearGradient2504"
       id="linearGradient2506"
       x1="94.833946"
       y1="146.24693"
       x2="152.80511"
       y2="146.24693"
       gradientUnits="userSpaceOnUse"
       gradientTransform="matrix(1.121197,0,0,1.1211984,-21.329905,-17.763556)" />
  </defs>
  <sodipodi:namedview
     id="base"
     pagecolor="#ffffff"
     bordercolor="#666666"
     borderopacity="1.0"
     inkscape:pageopacity="0.0"
     inkscape:pageshadow="2"
     inkscape:zoom="0.7"
     inkscape:cx="266.87326"
     inkscape:cy="198.68839"
     inkscape:document-units="mm"
     inkscape:current-layer="layer2"
     showgrid="false"
     showguides="true"
     inkscape:guide-bbox="true"
     inkscape:window-width="1920"
     inkscape:window-height="1017"
     inkscape:window-x="-8"
     inkscape:window-y="-8"
     inkscape:window-maximized="1">
    <sodipodi:guide
       position="52.441402,49.7363"
       orientation="1,0"
       id="guide95"
       inkscape:locked="false" />
    <sodipodi:guide
       position="52.441402,49.7363"
       orientation="0,1"
       id="guide97"
       inkscape:locked="false" />
  </sodipodi:namedview>
  <metadata
     id="metadata5">
    <rdf:RDF>
      <cc:Work
         rdf:about="">
        <dc:format>image/svg+xml</dc:format>
        <dc:type
           rdf:resource="http://purl.org/dc/dcmitype/StillImage" />
        <dc:title></dc:title>
      </cc:Work>
    </rdf:RDF>
  </metadata>
  <g
     inkscape:label="Layer 1"
     inkscape:groupmode="layer"
     id="layer1"
     sodipodi:insensitive="true"
     style="display:inline"
     transform="translate(-63.219311,-91.980335)">
    <g
       transform="translate(218.79639,631.57023)"
       id="layer1-2"
       inkscape:label="Layer 1">
      <g
         style="fill:#000000;stroke:none"
         transform="matrix(0.03527778,0,0,-0.03527778,-76.867773,-99.701091)"
         id="g28">
        <g
           inkscape:export-ydpi="96"
           inkscape:export-xdpi="96"
           transform="translate(1212.183,9545.9409)"
           id="g63">
          <path
             id="path26"
             d="m 10174,2255.6186 c -12,-7.4243 -88,-144.2474 -164,-293.7983 -24,-46.6683 -55,-108.1857 -70,-137.8837 -15,-28.6374 -46,-91.2153 -70,-137.8836 -24,-46.6684 -63,-121.9741 -87,-167.5818 -45,-84.8514 -64,-120.9134 -128,-246.0694 -93,-180.3094 -93,-180.3094 -350,-668.20554 L 9183,366.31749 c 3,-2.12129 117,-1.82675 253,-1.82675 l 249,1.06065 519.272,963.06501 528.66,-962.29891 h 226.314 255.542 c 0,0 -113.788,262.27357 -208.788,447.88624 -20,39.24383 -46,88.03344 -56,108.18567 -11,20.15223 -30,55.15348 -41,77.42699 -12,21.21291 -45,82.73031 -74,134.70181 -29,53.0322 -62,112.4282 -73,132.5804 -11,20.1524 -63,115.6102 -117,212.1288 -54,96.5186 -121,220.6139 -150,275.7674 -85,163.3392 -155,293.7984 -255,469.8652 -21,38.1832 -42,47.7289 -66,30.7586 z"
             inkscape:connector-curvature="0"
             style="fill:#003249;fill-opacity:1;stroke-width:1.02987552"
             sodipodi:nodetypes="cccscccccccccccccccsccc" />
          <path
             id="path10"
             d="m 7941.5335,2188.4759 c -227.577,-70.7971 -446.3257,-255.8142 -557.1715,-472.9264 -39.2376,-76.4608 -41.1994,-81.1809 -68.6657,-173.6893 -17.6566,-60.414 -20.5995,-97.229 -20.5995,-254.8707 0,-175.5772 0.9809,-187.8487 27.4663,-264.3101 66.7037,-197.28862 187.3587,-359.65063 363.927,-490.86175 154.9878,-115.16372 366.87,-172.74558 637.6084,-171.8016 259.6953,-4.15389 526.5227,63.55635 697.4454,231.27141 58.8562,60.41374 138.312,172.74557 128.5025,182.18521 -2.9429,2.8319 -35.3137,11.32757 -72.5893,17.93534 -78.4748,16.04743 -102.9982,22.65519 -234.4434,61.35775 l -100.0557,30.20689 -88.2842,-51.91813 c -107.9029,-62.30166 -214.8248,-93.4525 -318.8041,-91.56456 -125.5599,0.94394 -177.5493,12.27152 -273.6812,58.52579 -137.3308,66.07758 -263.8716,208.61625 -311.9375,349.26715 -28.447,84.9565 -27.4662,229.3834 2.9429,320.9479 48.0657,143.4825 153.0261,262.422 301.1474,339.8271 192.996,85.7048 383.4751,97.1177 568.9429,-1.8874 76.8827,-37.4917 129.3828,-74.5256 198.1487,-107.6123 l 141.2549,140.6506 c 77.4939,78.3495 140.2737,146.3149 141.2548,151.0344 0,13.216 -89.2652,78.3493 -164.7973,120.8276 -109.8649,62.3016 -199.1298,95.3403 -315.8611,119.8839 -241.9937,44.9968 -464.7025,29.1139 -681.7507,-42.4788 z"
             inkscape:connector-curvature="0"
             style="fill:#007ea7;fill-opacity:1;stroke-width:0.96227288"
             sodipodi:nodetypes="cccsccccccccccscccccccccc" />
          <path
             style="fill:#007ea7;fill-opacity:1"
             id="path12"
             d="m 1712,2255.6186 c 0,0 -11,-235.6186 -10,-946.6186 l 3,-944 210,-2 c 116,-2 215,1 222,5 9,6 10,225 5,952 l -7,935.6186 h -206 c -113,0 -217,0 -217,0 z"
             inkscape:connector-curvature="0"
             sodipodi:nodetypes="ccccccccc" />
          <path
             style="fill:#007ea7;fill-opacity:1"
             id="path14"
             d="m 5784,2255.6186 c -2,-2 -4,-423.6186 -4,-941.6186 V 370 l 23,-5 c 12,-3 315,-4 672,-3 l 650,3 v 210 210 l -434,3 c -300,1 -438,6 -448,13 -19,16 -19,252 0,268 10,7 148,12 448,13 l 434,3 v 210 210 l -440,5 -440,5 -3,162 -2,162 25,7 c 14,3 206,4 428,0 221,-3 408,-2 415,3 11,7 14,50 13,202 0,107 -0.03,204.6186 -1,201 0,8 -1336,3.6186 -1336,3.6186 z"
             inkscape:connector-curvature="0"
             sodipodi:nodetypes="csccccccccccccccccccccccc" />
          <path
             style="fill:#007ea7;fill-opacity:1"
             id="path16"
             d="m 357,2254 c -4,-4 -7,-429 -7,-945 V 371 l 33,-6 c 17,-3 288,-4 602,-3 l 570,3 v 210 210 l -361,3 c -287,2 -364,5 -373,16 -8,9 -12,225 -13,732 l -3,719 -221,3 c -121,1 -223,-1 -227,-4 z"
             inkscape:connector-curvature="0" />
          <path
             style="fill:#007ea7;fill-opacity:1"
             id="path18"
             d="m 2362,1313 3,-948 555,-3 c 499,-3 562,-1 620,14 189,50 330,177 372,334 31,112 30,265 0,382 -20,78 -121,184 -214,226 -45,20 -48,35 -10,51 68,28 154,133 183,221 18,56 19,284 1,302 -7,7 -12,20 -12,29 0,19 -50,107 -85,150 -51,63 -170,135 -265,161 -82,23 -171,26 -648,27 l -502,1 z m 990,498 c 57,-36 78,-74 78,-138 -1,-59 -38,-117 -95,-150 -39,-22 -47,-23 -280,-20 l -240,2 -3,168 -2,167 h 248 248 z m 36,-747 c 86,-43 108,-130 54,-209 -52,-75 -72,-80 -361,-83 -200,-2 -256,0 -262,10 -10,15 -12,292 -2,301 3,4 122,7 263,7 255,0 256,0 308,-26 z"
             inkscape:connector-curvature="0" />
          <path
             style="fill:#007ea7;fill-opacity:1"
             id="path20"
             d="m 4057,2253 c -10,-9 -9,-1883 1,-1883 4,0 101,-1 215,-3 114,-1 212,0 218,4 7,4 10,93 10,249 -1,167 2,247 10,256 15,19 213,19 249,1 26,-13 118,-124 299,-362 57,-75 114,-140 125,-145 27,-10 514,-11 520,-1 7,11 -55,97 -348,491 -47,63 -86,117 -85,120 0,3 32,25 71,50 83,53 213,186 255,261 59,107 78,190 78,334 -1,72 -6,144 -12,160 -6,17 -17,50 -24,75 -62,209 -232,351 -464,390 -59,10 -1109,13 -1118,3 z m 1038,-429 c 83,-32 154,-128 155,-209 0,-72 -18,-113 -78,-173 -81,-81 -97,-84 -403,-84 -139,1 -253,3 -255,4 -1,2 -6,109 -10,237 -5,160 -4,235 3,239 6,4 132,6 280,4 213,-2 276,-6 308,-18 z"
             inkscape:connector-curvature="0" />
          <path
             style="fill:#007ea7;fill-opacity:1"
             id="path22"
             d="m 11305,2248 c -3,-8 -4,-428 -3,-934 2,-737 6,-924 16,-937 11,-13 42,-15 220,-12 114,2 210,3 214,4 4,1 9,117 10,258 l 3,258 88,3 87,3 44,-43 c 25,-24 115,-137 201,-253 86,-116 162,-213 169,-217 13,-8 515,-12 522,-5 4,4 -366,529 -398,564 -17,18 -19,25 -9,37 7,9 23,18 34,22 66,21 200,144 267,247 21,31 52,96 69,143 29,79 31,95 31,217 0,115 -3,143 -26,217 -48,151 -179,316 -297,373 -129,62 -104,60 -695,64 -450,4 -543,2 -547,-9 z m 975,-423 c 44,-14 100,-66 130,-119 34,-58 40,-142 16,-200 -22,-52 -85,-109 -146,-132 -49,-18 -79,-20 -282,-19 -124,0 -229,3 -232,6 -11,10 -17,448 -7,467 8,16 29,17 252,11 134,-3 255,-9 269,-14 z"
             inkscape:connector-curvature="0" />
          <path
             sodipodi:nodetypes="ccccccccsccccccc"
             style="fill:#007ea7;fill-opacity:1"
             id="path24"
             d="m 12904,2247 c -2,-7 -3,-98 -2,-202 l 3,-190 270,-3 c 148,-1 273,-6 278,-11 l 24.357,-1479.56164 H 13681 c 0,0 214,-1 219,0 7,2 10,268.56164 10,743.56164 0,513 3,736 11,740 6,4 131,8 277,9 l 267,1 v 200 200 l -778,3 c -627,2 -779,0 -783,-11 z"
             inkscape:connector-curvature="0" />
        </g>
      </g>
    </g>
  </g>
  <g
     inkscape:groupmode="layer"
     id="layer2"
     inkscape:label="Layer 2"
     style="display:inline"
     transform="translate(-63.219311,-91.980335)">
    <path
       style="fill:url(#linearGradient997);fill-opacity:1;stroke-width:0.99999994"
       d="M 197.14258 0 A 197.14287 197.14287 0 0 0 0 197.14258 A 197.14287 197.14287 0 0 0 197.14258 394.28516 A 197.14287 197.14287 0 0 0 394.28516 197.14258 A 197.14287 197.14287 0 0 0 197.14258 0 z M 201.82422 23.710938 A 171.87041 171.87041 0 0 1 373.69531 195.58203 A 171.87041 171.87041 0 0 1 201.82422 367.45117 A 171.87041 171.87041 0 0 1 29.953125 195.58203 A 171.87041 171.87041 0 0 1 201.82422 23.710938 z "
       id="path100"
       transform="matrix(0.26458333,0,0,0.26458333,63.219311,91.980335)"
       inkscape:export-xdpi="116.86956"
       inkscape:export-ydpi="116.86956" />
    <path
       style="fill:url(#linearGradient2506);fill-opacity:1;stroke-width:0.11489927"
       d="m 109.033,177.53054 c -1.9305,-0.41963 -3.81913,-1.87544 -4.63541,-3.57308 -1.01742,-2.11592 -0.88173,-4.79417 0.33929,-6.69694 0.85754,-1.3364 2.49682,-2.49281 4.07727,-2.87627 0.77361,-0.18771 2.61873,-0.13434 3.46612,0.10024 2.05334,0.56843 3.84232,2.35688 4.60261,4.60129 0.33623,0.99251 0.2916,3.14274 -0.0859,4.13811 -1.19615,3.15421 -4.538,5.00792 -7.76401,4.30665 z m 2.80075,-3.5152 c 1.70125,-0.82217 2.49164,-2.92238 1.70493,-4.53035 -0.63917,-1.30643 -1.82344,-1.96135 -3.37857,-1.86844 -1.01249,0.0604 -1.61837,0.32267 -2.2646,0.97994 -1.24737,1.26869 -1.22782,3.34632 0.0438,4.66413 1.01975,1.0567 2.62552,1.36789 3.89435,0.75472 z m 23.47475,3.56685 c -1.13796,-0.19684 -2.24457,-0.83759 -3.34367,-1.9361 -1.46579,-1.46503 -2.00116,-2.75463 -1.98407,-4.77937 0.0155,-1.83293 0.86114,-3.68723 2.25851,-4.95231 0.66989,-0.60647 2.12216,-1.33467 3.04616,-1.5274 3.38024,-0.70508 6.91414,1.39271 7.87853,4.67684 0.67884,2.31169 0.0982,4.7485 -1.55175,6.51229 -1.30442,1.39444 -2.64465,2.00936 -4.52278,2.07511 -0.63195,0.0222 -1.43337,-0.009 -1.78093,-0.0691 z m 2.52777,-3.46518 c 1.00619,-0.30822 1.91528,-1.31009 2.25774,-2.48814 0.5783,-1.98926 -1.15804,-4.05705 -3.40673,-4.05705 -1.8689,0 -3.30931,1.29629 -3.42614,3.08334 -0.0628,0.96051 0.20499,1.72054 0.8648,2.45441 1.00692,1.11993 2.24536,1.45618 3.71033,1.00744 z m -19.85023,-5.73394 c -0.14296,-0.44688 -0.49093,-1.16961 -0.77326,-1.60604 l -0.51332,-0.79355 h 6.84355 6.84356 l -0.22406,0.37343 c -0.56567,0.94284 -0.824,1.45979 -1.06223,2.12564 l -0.25694,0.71813 -5.2987,-0.003 -5.29868,-0.003 -0.25992,-0.81255 z m 26.557,0.50165 c -0.65275,-2.01688 -1.93807,-3.6632 -3.71938,-4.76409 -1.49664,-0.92495 -2.0604,-1.06747 -4.19383,-1.06026 -1.58846,0.006 -1.93552,0.0405 -2.55288,0.25822 -0.7141,0.25188 -0.72003,0.25203 -10.52401,0.25203 -9.43744,0 -9.83432,-0.009 -10.4629,-0.22481 -2.08777,-0.71828 -5.20495,-0.43267 -7.0447,0.6455 -0.27838,0.16314 -0.52929,0.27346 -0.55759,0.24517 -0.0282,-0.0283 -0.10102,-0.30603 -0.16149,-0.61718 -0.0604,-0.31117 -0.37282,-1.8325 -0.69404,-3.38078 -0.57007,-2.74801 -2.28025,-11.2665 -2.745,-13.67304 -0.28166,-1.45844 -2.1154,-10.4407 -2.76792,-13.55812 -0.25795,-1.23231 -0.70192,-3.40391 -0.98661,-4.82579 -0.64491,-3.22084 -0.77449,-3.67514 -1.14858,-4.02679 l -0.2999,-0.28193 -4.44329,-0.0575 -4.44327,-0.0574 -0.61533,-0.34083 c -0.7456,-0.41298 -1.40036,-1.1328 -1.81954,-2.00037 -0.26859,-0.55588 -0.31864,-0.825 -0.35818,-1.92564 -0.0705,-1.96378 0.39064,-3.15046 1.55189,-3.99332 1.01974,-0.74015 1.20479,-0.75944 7.28549,-0.75944 4.46023,0 5.57452,0.0312 6.11165,0.1711 2.04408,0.53241 3.7655,2.1298 4.53174,4.20518 0.16425,0.4449 0.63914,2.03358 1.05529,3.5304 l 0.75665,2.72152 19.81969,0.0575 c 18.31587,0.0532 19.85664,0.0722 20.30692,0.25304 2.37091,0.95177 3.73078,3.07405 3.55576,5.54936 -0.0434,0.61333 -0.48405,2.58241 -1.32434,5.91734 -0.69265,2.74896 -1.60322,6.44585 -2.02348,8.21531 -0.42025,1.76944 -0.91879,3.86348 -1.10786,4.6534 -0.18907,0.78995 -0.46724,1.70607 -0.61819,2.03584 -0.83853,1.83204 -2.42202,3.21471 -4.48188,3.91353 l -0.92161,0.31267 H 124.85267 110.203 v -1.6086 -1.60859 l 1.40753,-0.0323 1.40751,-0.0323 v -3.21365 -3.21365 h -2.33476 -2.33474 l -0.13623,-1.1777 c -0.075,-0.64775 -0.13596,-1.26719 -0.1356,-1.37652 4.4e-4,-0.18122 0.21646,-0.20153 2.44227,-0.2298 l 2.44161,-0.0311 v -3.15973 -3.15973 l -0.86174,-0.005 c -0.47397,-0.003 -1.83121,-0.0155 -3.01611,-0.0287 l -2.15437,-0.0241 v -1.37878 -1.3788 h 3.04483 3.04484 v -2.92995 -2.92992 h -4.74341 -4.74339 l -0.30873,-1.29262 c -0.59592,-2.49505 -1.69164,-6.61947 -1.92257,-7.23665 -0.29376,-0.78517 -0.94221,-1.55035 -1.54636,-1.82476 -0.43039,-0.19549 -0.86261,-0.21186 -5.6558,-0.21419 -2.85439,-0.002 -5.27349,0.0296 -5.37579,0.0688 -0.24187,0.0928 -0.52219,0.64045 -0.52219,1.02016 0,0.37971 0.28032,0.92735 0.52219,1.02017 0.10225,0.0393 1.98057,0.0714 4.17393,0.0714 4.48841,0 4.92376,0.0557 5.95791,0.76266 1.13892,0.77852 1.57386,1.73091 2.10144,4.60159 0.49164,2.67517 1.16305,5.97798 2.64667,13.01966 0.24632,1.1691 0.84272,4.11628 1.32534,6.54927 3.09862,15.62099 2.77585,14.30633 3.61784,14.73569 0.36905,0.18817 1.33278,0.20095 15.216,0.20188 14.50132,7.9e-4 14.84307,0.007 15.79584,0.23443 1.61964,0.38825 2.55471,0.9089 3.6805,2.04932 1.5195,1.53922 2.18378,3.08275 2.1806,5.06687 -0.003,1.3195 -0.0581,1.49602 -0.47502,1.49602 -0.21758,0 -0.35772,-0.0704 -0.4,-0.20108 z m -20.49468,-19.10206 v -3.21718 h -4.19382 -4.19383 v 3.21718 3.21719 h 4.19383 4.19382 z m 11.14524,0 v -3.21718 h -4.25129 -4.25126 v 3.21718 3.21719 h 4.25126 4.25129 z m 4.44222,2.85566 c 0.75943,-0.28413 1.66974,-1.07471 2.01362,-1.74877 0.22638,-0.44377 1.12358,-3.73026 1.12618,-4.12528 0.002,-0.18918 -0.16899,-0.2012 -2.44029,-0.17235 l -2.44162,0.0311 v 3.04482 c 0,1.67468 0.016,3.08363 0.0356,3.13103 0.0713,0.17312 1.06463,0.0797 1.70657,-0.16045 z m -15.64491,-12.02143 v -3.13353 l -4.1651,-0.0706 -4.1651,-0.0706 v 3.15627 c 0,1.73595 0.0351,3.19137 0.078,3.23429 0.0429,0.0429 1.91722,0.0645 4.1651,0.0479 l 4.08706,-0.03 z m 11.20269,-0.0262 v -3.21717 h -4.24449 c -2.33448,0 -4.26377,0.0388 -4.28731,0.0862 -0.0236,0.0474 -0.0211,1.49511 0.006,3.21718 l 0.0482,3.13101 h 4.23906 4.23905 v -3.21719 z m 8.50551,2.61397 c 0.0775,-0.33176 0.41595,-1.73717 0.75223,-3.12312 0.33628,-1.38593 0.58655,-2.56009 0.55616,-2.60928 -0.0304,-0.0492 -1.64342,-0.0786 -3.58452,-0.0654 l -3.52927,0.0241 -0.0232,3.09333 c -0.0128,1.70135 0.003,3.13615 0.0354,3.18847 0.0323,0.0523 1.31734,0.0951 2.85558,0.0951 h 2.79678 z M 124.04836,131.686 v -2.92992 h -4.19382 -4.19383 v 2.92992 2.92995 h 4.19383 4.19382 z m 11.14524,0 v -2.92992 h -4.25129 -4.25126 v 2.92992 2.92995 h 4.25126 4.25129 z m 11.09248,1.15224 c 0.32358,-1.35508 0.40626,-1.89941 0.34775,-2.28958 -0.0924,-0.6158 -0.44996,-1.17725 -0.9754,-1.53133 -0.38341,-0.25837 -0.42875,-0.26125 -4.10492,-0.26125 h -3.71724 v 2.85332 c 0,1.56935 0.0345,2.88781 0.0767,2.92995 0.0422,0.0422 1.84782,0.0767 4.01265,0.0767 h 3.93605 z"
       id="path1014"
       inkscape:connector-curvature="0"
       inkscape:export-xdpi="116.86956"
       inkscape:export-ydpi="116.86956" />
  </g>
</svg>
